<?xml version="1.0" encoding="UTF-8" standalone="yes"?>
<svg version="1.2" baseProfile="tiny-ps" viewBox="0 0 32 32" xmlns="http://www.w3.org/2000/svg">
  <title>bimi-svg-tiny-12-ps</title>
  <g>
    <g fill="#fafafa" transform="matrix(.1 0 0 -.1 0 32)">
      <path d="M0 160V0h320v320H0V160z"/>
    </g>
    <g fill="#d6d6d6" transform="matrix(.1 0 0 -.1 0 32)">
      <path d="m82 304-33-17-22-31-22-31V95l20-27c11-15 37-36 58-48l39-22 52 4 52 4 25 19c14 10 34 30 44 44l19 25 4 52 4 52-22 39c-12 21-33 47-48 58l-26 19-56 3-55 4-33-17zm167-21c13-11 27-25 29-31l4-12h-70l-6 25c-4 14-11 25-16 25-14 0-12-12 6-38l15-22h-23c-13 0-54-14-91-30l-69-29 7 27c9 40 37 75 76 95l34 18 39-5 39-5 26-18zm54-75 6-22-12-8c-7-4-24-8-38-8h-27l-4 30-5 30h75l5-22zm-93 5c0-5 3-18 6-29l6-21-34-7c-18-3-57-17-85-31l-53-24-10 19c-17 31-12 36 48 62 88 39 122 48 122 31zm100-58c0-3-6-20-14-39l-14-33-27-21c-15-12-42-24-60-28l-34-6-34 11c-19 7-43 21-52 31L57 90l54 24c30 14 66 28 82 31l27 7v-52h20v60h35c19 0 35-2 35-5z"/>
    </g>
    <g fill="#afadae" transform="matrix(.1 0 0 -.1 0 32)">
      <path d="M79 297c-18-12-44-38-56-56L0 207v-94l23-34c12-18 38-44 56-56l34-23h94l34 23c18 12 44 38 56 56l23 34v88l-15 29c-21 41-27 38-9-5 7-19 14-47 14-62v-28l-20-33-20-32-32-20-33-20h-66l-27 14c-15 8-38 26-51 42l-23 27-4 46-4 46 20 33c11 18 34 41 52 53l33 20 48-4 49-4-14 8c-7 5-34 9-59 9h-46l-34-23zm101-15c0-4 7-18 16-30l15-22 37 2 37 1-37 4-36 4-6 25c-6 22-26 35-26 16zm-2-59c7-3 16-2 19 1 4 3-2 6-13 5l-19-1 13-5zm32-16c0-7 6-21 13-31l13-18 25 5 24 4-27 2-28 1v50h-10c-5 0-10-6-10-13zm-110-7-15-10h10c6 0 17 5 25 10l15 10h-10c-5 0-17-5-25-10zm103-47 17-4v-49h20v48l-16 6c-9 3-21 5-27 5l-12-1 18-5z"/>
    </g>
    <g fill="#7e7c7c" transform="matrix(.1 0 0 -.1 0 32)">
      <path d="M95 306c-17-7-43-28-58-45l-26-32-7-34-6-35 7-37 7-37 37-37 37-37 37-7 37-7 35 6 34 7 32 26 32 27 13 33 14 32-1 38-1 38-8-46c-4-26-15-58-25-72l-16-25-34-16c-42-20-88-20-128-1L75 60 53 93l-23 33v76l16 33 16 34 25 16c14 10 46 21 72 25l46 8h-40l-40 1-30-13zm96-36c14-31 19-36 19-24 0 6-7 19-16 30l-15 19 12-25zm19-57c0-4 5-15 10-23l10-15v17c0 9-4 20-10 23l-10 6v-8zm22-88V95l5 18c2 9 2 23 0 30l-5 12v-30z"/>
    </g>
    <g fill="#4a4747" transform="matrix(.1 0 0 -.1 0 32)">
      <path d="M138 313c6-2 18-2 25 0l12 5h-50l13-5zm-66-23-33-20-19-43C9 204 0 174 0 160v-26l22-44 23-45 45-23 44-22h26c14 0 44 9 67 20l43 19 20 33c11 18 20 38 20 43 0 6-9-4-20-22l-19-32-30-16-30-15h-82l-29 15c-15 8-38 27-49 41l-21 27v98l15 30 16 30 32 19c18 11 28 20 22 20-5 0-25-9-43-20zm118-20c6-11 13-20 16-20 2 0 0 9-6 20s-13 20-16 20c-2 0 0-9 6-20zm122-110v-35l5 18c2 9 2 25 0 35l-5 17v-35z"/>
    </g>
    <g fill="#262223" transform="matrix(.1 0 0 -.1 0 32)">
      <path d="m51 269-31-30-10-40-11-39 10-37 10-36 33-34 32-33 38-11 38-10 38 10 38 11 34 36 35 37-42-33-42-32-49-1-50-1-37 28-37 29-14 33-14 34 6 41 7 42 30 33c36 42 29 44-12 3z"/>
    </g>
  </g>
</svg>